<svg width="21" height="19" viewBox="0 0 21 19" fill="none" xmlns="http://www.w3.org/2000/svg">
<path d="M12.2812 0.203075C12.4128 0.138819 12.5597 0.112806 12.7053 0.128C12.8509 0.143194 12.9893 0.198985 13.1047 0.289012L20.1359 5.75776C20.2266 5.82817 20.3006 5.91768 20.3527 6.01993C20.4049 6.12218 20.4338 6.23466 20.4375 6.34937C20.4413 6.46409 20.4197 6.57821 20.3743 6.68363C20.3289 6.78905 20.2609 6.88318 20.175 6.95932L13.1437 13.2093C13.0311 13.3093 12.892 13.3746 12.7432 13.3974C12.5943 13.4202 12.442 13.3995 12.3047 13.3377C12.1673 13.276 12.0507 13.1759 11.969 13.0494C11.8872 12.9229 11.8437 12.7755 11.8438 12.6249V9.58745C11.475 9.64995 10.9937 9.75933 10.4312 9.94683C9.06719 10.4031 7.22188 11.3203 5.36563 13.1781C5.25205 13.2921 5.10603 13.3682 4.94754 13.3961C4.78905 13.424 4.62581 13.4023 4.48013 13.3339C4.33446 13.2655 4.21346 13.1538 4.13368 13.014C4.05389 12.8743 4.01921 12.7133 4.03437 12.5531C4.25781 10.0984 4.97344 8.30776 5.94687 7.01714C6.7828 5.9036 7.91808 5.05065 9.22031 4.55776C10.0606 4.24008 10.9462 4.05863 11.8438 4.02026V0.9062C11.8435 0.759778 11.8843 0.616221 11.9617 0.4919C12.039 0.36758 12.1498 0.2675 12.2812 0.203075ZM0.125 5.5937C0.125 4.5577 0.53655 3.56413 1.26911 2.83156C2.00168 2.099 2.99525 1.68745 4.03125 1.68745H7.15625C7.36345 1.68745 7.56216 1.76976 7.70868 1.91627C7.85519 2.06279 7.9375 2.2615 7.9375 2.4687C7.9375 2.6759 7.85519 2.87461 7.70868 3.02113C7.56216 3.16764 7.36345 3.24995 7.15625 3.24995H4.03125C3.40965 3.24995 2.81351 3.49688 2.37397 3.93642C1.93443 4.37596 1.6875 4.9721 1.6875 5.5937V14.9687C1.6875 15.5903 1.93443 16.1864 2.37397 16.626C2.81351 17.0655 3.40965 17.3124 4.03125 17.3124H13.4062C14.0279 17.3124 14.624 17.0655 15.0635 16.626C15.5031 16.1864 15.75 15.5903 15.75 14.9687V13.4062C15.75 13.199 15.8323 13.0003 15.9788 12.8538C16.1253 12.7073 16.324 12.6249 16.5312 12.6249C16.7385 12.6249 16.9372 12.7073 17.0837 12.8538C17.2302 13.0003 17.3125 13.199 17.3125 13.4062V14.9687C17.3125 16.0047 16.9009 16.9983 16.1684 17.7308C15.4358 18.4634 14.4423 18.8749 13.4062 18.8749H4.03125C2.99525 18.8749 2.00168 18.4634 1.26911 17.7308C0.53655 16.9983 0.125 16.0047 0.125 14.9687V5.5937Z" fill="#0D99FF"/>
</svg>
